<?xml version="1.0" encoding="utf-8"?>
<!-- Generator: Adobe Illustrator 15.0.2, SVG Export Plug-In . SVG Version: 6.00 Build 0)  -->
<!DOCTYPE svg PUBLIC "-//W3C//DTD SVG 1.1//EN" "http://www.w3.org/Graphics/SVG/1.1/DTD/svg11.dtd">
<svg version="1.1" id="Layer_1" xmlns="http://www.w3.org/2000/svg" xmlns:xlink="http://www.w3.org/1999/xlink" x="0px" y="0px"
	 width="500px" height="500px" viewBox="0 0 500 500" enable-background="new 0 0 500 500" xml:space="preserve">
<path fill="#FFFFFF" d="M250,500c-9.202,0-17.777-4.128-23.525-11.305L67.456,289.906c-7.194-8.981-8.616-21.493-3.635-31.867
	c4.996-10.371,15.646-17.068,27.148-17.068h38.546c5.538,0,10.041-4.505,10.041-10.04V30.122C139.556,13.507,153.064,0,169.677,0
	c5.542,0,10.041,4.496,10.041,10.041c0,5.54-4.498,10.041-10.041,10.041c-5.537,0-10.04,4.5-10.04,10.041v200.809
	c0,16.61-13.509,30.119-30.122,30.119H90.969c-3.834,0-7.388,2.235-9.055,5.696c-1.657,3.451-1.179,7.619,1.213,10.619
	l159.032,198.789c3.836,4.785,11.847,4.785,15.676,0l159.029-198.789c2.402-3,2.873-7.168,1.216-10.619
	c-1.667-3.461-5.217-5.696-9.055-5.696h-38.539c-16.61,0-30.122-13.509-30.122-30.119V30.122c0-5.54-4.5-10.041-10.04-10.041
	H209.839c-5.542,0-10.041-4.5-10.041-10.041C199.798,4.496,204.296,0,209.839,0h120.485c16.609,0,30.121,13.507,30.121,30.122
	v200.809c0,5.535,4.501,10.04,10.041,10.04h38.543c11.502,0,22.155,6.697,27.146,17.068c4.985,10.374,3.563,22.886-3.633,31.867
	l-159.02,198.789C267.777,495.872,259.203,500,250,500z"/>
</svg>
