<?xml version="1.0" encoding="utf-8"?>
<!-- Generator: Adobe Illustrator 15.0.2, SVG Export Plug-In . SVG Version: 6.00 Build 0)  -->
<!DOCTYPE svg PUBLIC "-//W3C//DTD SVG 1.1//EN" "http://www.w3.org/Graphics/SVG/1.1/DTD/svg11.dtd">
<svg version="1.1" id="Layer_1" xmlns="http://www.w3.org/2000/svg" xmlns:xlink="http://www.w3.org/1999/xlink" x="0px" y="0px"
	 width="500px" height="500px" viewBox="0 0 500 500" enable-background="new 0 0 500 500" xml:space="preserve">
<path fill="#FFFFFF" d="M441.221,354.944c-3.305,0-6.539,0.287-9.691,0.809l-36.925-124.71
	c-13.98-50.219-45.233-92.303-86.189-120.542h42.292c4.078,0,7.395-3.316,7.395-7.397c0-4.078-3.316-7.395-7.395-7.395H301.15
	c-3.48,0-6.398,2.405-7.184,5.64c-30.434-17.645-65.278-28.042-101.877-29.188v-5.135h-2.936v-7.509
	c0-8.675-6.299-14.97-14.973-14.97h-21.02c-1.831,0-3.319-1.491-3.319-3.319c0-1.831,1.488-3.319,3.319-3.319h22.104
	c0.445,1.239,1.626,2.139,3.02,2.139h46.897c1.772,0,3.22-1.45,3.22-3.22v-6.079c0-1.772-1.447-3.223-3.22-3.223h-46.897
	c-1.341,0-2.49,0.838-2.976,2.007h-22.148c-6.445,0-11.689,5.244-11.689,11.683c0,6.445,5.244,11.692,11.689,11.692h21.02
	c4.069,0,6.603,2.528,6.603,6.598v7.512h-3.038v35.768C78.941,106.555,0,187.822,0,287.546
	c0,102.126,82.785,184.911,184.909,184.911c102.121,0,184.912-82.791,184.912-184.911c0-99.724-78.936-180.991-177.737-184.762
	V86.501c87.95,2.944,164.963,63.122,188.728,148.497l36.96,124.822c-20.776,9.053-35.319,29.765-35.319,53.888
	c0,32.454,26.32,58.768,58.769,58.768c32.46,0,58.779-26.313,58.779-58.768S473.681,354.944,441.221,354.944z M305.521,166.939
	c32.214,32.214,49.956,75.045,49.956,120.606s-17.742,88.398-49.956,120.612c-32.214,32.208-75.047,49.956-120.612,49.956
	s-88.392-17.748-120.612-49.956c-32.214-32.214-49.958-75.051-49.958-120.612s17.742-88.392,49.958-120.609
	c30.521-30.518,70.569-48.037,113.438-49.797v157.282c-4.64,2.543-7.784,7.465-7.784,13.125c0,1.611,0.261,3.164,0.735,4.623
	L144.36,310.59h-15.533v14.35h25.104v-10.834l21.46-15.017c2.583,2.127,5.9,3.416,9.512,3.416c8.261,0,14.956-6.691,14.956-14.953
	c0-1.752-0.313-3.428-0.87-4.986l26.554-18.591h15.366v-14.35h-25.104v10.951l-21.7,15.192c-0.636-0.498-1.31-0.955-2.021-1.348
	V117.139C234.952,118.9,275.006,136.419,305.521,166.939z M441.221,459.333c-25.148,0-45.62-20.467-45.62-45.62
	c0-18.117,10.617-33.796,25.944-41.149l10.57,35.712c-0.949,1.588-1.512,3.445-1.512,5.438c0,5.871,4.746,10.617,10.617,10.617
	c5.859,0,10.605-4.746,10.605-10.617c0-4.189-2.426-7.805-5.953-9.527l-10.57-35.688c1.934-0.252,3.914-0.398,5.918-0.398
	c25.147,0,45.62,20.466,45.62,45.614C486.841,438.866,466.368,459.333,441.221,459.333z"/>
</svg>
