<?xml version="1.0" encoding="utf-8"?>
<!-- Generator: Adobe Illustrator 15.0.2, SVG Export Plug-In . SVG Version: 6.00 Build 0)  -->
<!DOCTYPE svg PUBLIC "-//W3C//DTD SVG 1.1//EN" "http://www.w3.org/Graphics/SVG/1.1/DTD/svg11.dtd">
<svg version="1.1" id="Layer_1" xmlns="http://www.w3.org/2000/svg" xmlns:xlink="http://www.w3.org/1999/xlink" x="0px" y="0px"
	 width="500px" height="500px" viewBox="0 0 500 500" enable-background="new 0 0 500 500" xml:space="preserve">
<path fill="#FFFFFF" d="M6.34,45.394c20.523,32.39,68.898,87.085,68.898,87.085s12.863-0.914,23.135-5.851
	c10.283-4.937,18.768-11.417,18.768-11.417s-7.634,10.292-15.475,15.286c-9.332,5.937-20.689,8.21-21.545,9.854
	c-1.786,3.461,38.248,37.363,63.664,58c13.627,11.062,57.531,41.211,57.531,41.211s17.57-8.416,29.619-12.613
	c7.644-2.658,26.479-6.109,26.479-6.109s-18.965,7.384-25.04,10.385c-4.724,2.336-18.205,5.301-18.226,10.571
	c-0.031,7.504,27.553,27.683,38.028,35.125c11.177,7.949,33.901,22.64,47.025,24.425c4.72,0.639,16.221-7.521,26.918-12.228
	c21.289,23.067,37.528,41.83,42.157,47.45c44.397,53.764,84.5,108.735,101.625,132.201c3.018,4.14,5.387,7.387,7.025,9.591
	c0.887,1.208,1.574,2.121,2.055,2.734c4.186,5.364,8.891,5.638,12.115,4.931l6.402-1.431l1.969-6.239
	c1.29-4.095-0.021-7.521-1.283-10.841c-0.761-2.003-2.162-5.403-4.478-10.246c-3.667-7.649-10.444-20.563-21.903-38.599
	c-18.283-28.761-52.195-76.232-111.382-142.293l0.666-0.366c0,0,8.651-16.517,9.899-22.69c1.238-6.144-0.553-18.381-3.24-24.043
	c-3.748-7.907-21.376-26.221-21.376-26.221s0.258,18.125-0.974,25.651c-1.479,9.018-6.516,20.681-7.545,23.014
	c-0.045-0.041-0.09-0.094-0.135-0.135c0.371-3.37,2.184-20.373,2.405-26.484c0.271-7.49-0.163-22.384-2.567-29.112
	c-11.449-32-79.146-78.698-79.146-78.698s3.193,17.057,3.652,24.113c0.614,9.304-3.885,27.233-3.885,27.233
	s-1.447-21.297-2.134-27.111c-1.401-11.787-4.091-28.99-10.326-35.698C211.369,68.93,114.867,30.099,59.75,15.646
	c-19.005-4.984-53.088,0.629-58.884,5.063C-0.646,21.868-0.92,33.938,6.34,45.394z M21.364,34.558c0,0,70.895,27.886,156.331,89.723
	c52.746,38.173,113.936,93.4,162.722,146.861c127.821,140.095,148.914,203.65,148.224,203.8
	c-0.688,0.155-51.848-73.208-111.617-145.601c-9.266-11.232-79.149-91.553-133.506-137.373
	c-38.734-32.65-57.374-52.001-96.938-80.388C80.217,63.972,21.364,34.558,21.364,34.558z"/>
</svg>
