<?xml version="1.0" encoding="utf-8"?>
<!-- Generator: Adobe Illustrator 15.0.2, SVG Export Plug-In . SVG Version: 6.00 Build 0)  -->
<!DOCTYPE svg PUBLIC "-//W3C//DTD SVG 1.1//EN" "http://www.w3.org/Graphics/SVG/1.1/DTD/svg11.dtd">
<svg version="1.1" id="Layer_1" xmlns="http://www.w3.org/2000/svg" xmlns:xlink="http://www.w3.org/1999/xlink" x="0px" y="0px"
	 width="828px" height="90px" viewBox="0 0 828 90" enable-background="new 0 0 828 90" xml:space="preserve">
<g>
	<g>
		<g>
			<path fill="#FFFFFF" stroke="#FFFFFF" stroke-width="1.5" stroke-miterlimit="10" d="M18.755,14.234h-17.6V2.374h29.842v85.063
				H18.755V14.234z M81.499,87.438V50.709H47.958v36.729H35.716V2.374h29.713v11.86H47.958v24.742h33.541V2.374h12.243v85.063
				H81.499z"/>
			<path fill="#FFFFFF" stroke="#FFFFFF" stroke-width="1.5" stroke-miterlimit="10" d="M107.315,87.438V2.322h46.698v3.105h-43.247
				v37.611h43.247v3.105h-43.247v38.188h43.247v3.105H107.315z"/>
			<path fill="#FFFFFF" stroke="#FFFFFF" stroke-width="1.5" stroke-miterlimit="10" d="M245.784,54.533l-17.6,25.764
				c5.229-0.385,10.968-2.809,15.687-6.125c4.337-3.184,7.907-7.521,11.477-14.41h9.183c-3.315,8.416-7.651,14.41-13.773,19.387
				c-7.142,5.865-17.471,9.818-26.016,9.818c-24.357,0-43.997-19.766-43.997-44.124c0-23.977,20.022-43.998,43.997-43.998
				c11.35,0,22.063,4.974,30.863,14.411l-4.847,7.141c-8.671-9.31-16.579-13.391-26.016-13.391
				c-18.747,0-35.452,16.835-35.452,35.71c0,11.095,4.463,21.169,12.497,27.8c4.591,3.826,9.183,5.994,16.452,7.781l53.434-77.923
				h11.479v85.063h-8.545V54.533H245.784z M274.605,12.193L251.012,47.01h23.593V12.193z"/>
			<path fill="#FFFFFF" stroke="#FFFFFF" stroke-width="1.5" stroke-miterlimit="10" d="M297.361,87.438V2.322h3.451v82.01h36v3.105
				H297.361z"/>
			<path fill="#FFFFFF" stroke="#FFFFFF" stroke-width="1.5" stroke-miterlimit="10" d="M342.557,87.438V2.322h46.697v3.105h-43.246
				v37.611h43.246v3.105h-43.246v38.188h43.246v3.105H342.557z"/>
			<polygon fill="#FFFFFF" stroke="#FFFFFF" stroke-width="1.5" stroke-miterlimit="10" points="408.533,2.374 421.093,2.374 
				464.478,67.414 464.478,14.234 446.976,14.234 446.976,2.374 476.659,2.374 476.659,87.438 464.093,87.438 420.839,22.396 
				420.839,87.438 408.533,87.438 			"/>
		</g>
		<g>
			<path fill="#FFFFFF" stroke="#FFFFFF" stroke-width="1.5" stroke-miterlimit="10" d="M541.862,75.131
				c-9.314,9.201-20.471,12.307-33.236,12.307h-27.141V2.333h27.602c13.686,0,26.564,4.141,34.73,15.641
				c5.52,7.706,8.74,17.596,8.74,27.142C552.558,55.006,548.993,68,541.862,75.131z M537.606,32.119
				c-5.059-12.305-15.525-18.4-28.635-18.4h-15.066v62.332h14.836c19.32,0,31.396-11.27,31.396-30.936
				C540.138,40.745,539.218,36.26,537.606,32.119z"/>
		</g>
		<g>
			<path fill="#FFFFFF" stroke="#FFFFFF" stroke-width="1.5" stroke-miterlimit="10" d="M559.196,87.438h-9.82l59.686-85.064h10.84
				v85.064h-8.418V58.996h-32.266L559.196,87.438z M611.483,51.473v-38.26l-27.037,38.26H611.483z"/>
			<path fill="#FFFFFF" stroke="#FFFFFF" stroke-width="1.5" stroke-miterlimit="10" d="M673.442,54.086
				c-2.531,0.92-5.521,1.609-8.281,1.609l23.807,31.742h-15.525L645.38,47.99h-0.23v39.447h-12.42V2.333h26.336
				c8.051,0,16.676,1.266,22.656,7.131c5.406,5.175,7.82,12.766,7.82,20.126C689.542,41.09,684.481,50.176,673.442,54.086z
				 M658.261,13.719h-13.111v32.547h8.512c11.041,0,23.461-3.105,23.461-16.676C677.122,18.779,668.151,13.719,658.261,13.719z"/>
		</g>
	</g>
	<g>
		<path fill="#A2CC39" stroke="#A3CD39" stroke-width="1.5" stroke-miterlimit="10" d="M701.573,87.416V73.385h11.959v14.031
			H701.573z"/>
		<path fill="#A2CC39" stroke="#A3CD39" stroke-width="1.5" stroke-miterlimit="10" d="M789.478,54.514l-17.6,25.762
			c5.357-0.383,10.586-2.424,15.688-6.123c4.207-3.061,8.033-7.906,11.477-14.41h9.184c-3.189,8.033-7.779,14.41-13.773,19.385
			c-8.035,6.504-16.707,9.82-26.018,9.82c-12.115,0-22.572-4.336-31.117-12.881c-8.545-8.672-12.881-19.131-12.881-31.245
			c0-11.988,4.336-22.318,13.008-30.991c8.672-8.672,19.002-13.008,30.99-13.008c11.605,0,21.936,4.846,30.863,14.411l-4.846,7.142
			c-8.291-8.928-16.963-13.391-26.018-13.391c-9.311,0-17.6,3.57-24.742,10.84c-7.141,7.142-10.711,15.433-10.711,24.87
			c0,11.604,4.207,20.913,12.498,27.8c4.207,3.572,9.691,6.123,16.451,7.781l53.436-77.923h11.479v85.063H818.3V54.514H789.478z
			 M818.3,12.172l-23.594,34.816H818.3V12.172z"/>
	</g>
</g>
</svg>
